<svg width="50" height="50" viewBox="0 0 50 50" fill="none" xmlns="http://www.w3.org/2000/svg">
<path d="M25 50C38.8071 50 50 38.8071 50 25C50 11.1929 38.8071 0 25 0C11.1929 0 0 11.1929 0 25C0 38.8071 11.1929 50 25 50Z" fill="#0032A0"/>
<path d="M13.6027 20.6422H11.4502V25.1941C9.58009 23.518 7.6923 21.8243 5.76923 20.1482V29.3754H7.92166V24.8236C9.70359 26.4114 11.6267 28.1934 13.6027 29.8694V20.6422ZM18.3486 29.3754H16.2138V20.6422H18.3486V29.3754ZM23.9238 29.8694C22.4065 27.0113 20.8892 23.7297 19.3719 20.6422H21.789L23.9414 25.3705L26.0056 20.6422H28.3698C26.8701 23.7297 25.3881 27.0113 23.9238 29.8694ZM35.127 22.5476H31.4926V24.0473H35.127V25.9527H31.4926V27.4524H35.127V29.3578H29.3578V20.6422H35.127V22.5476ZM40.561 20.1482C39.079 23.0593 37.6147 26.1997 36.1327 29.3754H38.3733L38.8144 28.3345H42.3077L42.7488 29.3754H45.0776C43.5603 26.1821 42.0254 23.0063 40.561 20.1482ZM39.4495 26.6937L40.561 24.1531L41.6373 26.6937H39.4495Z" fill="white"/>
</svg>
